<svg id="Capa_1" enable-background="new 0 0 512.181 512.181" height="512" viewBox="0 0 512.181 512.181" width="512" xmlns="http://www.w3.org/2000/svg"><g><g><path d="m500.726 504.679h-489.272c-2.133 0-3.862-1.729-3.862-3.862v-21.829c0-2.133 1.729-3.862 3.862-3.862h489.272c2.133 0 3.862 1.729 3.862 3.862v21.829c0 2.133-1.729 3.862-3.862 3.862z" fill="#9facba"/></g><g><path d="m504.59 478.987v21.825c0 2.142-1.731 3.863-3.863 3.863h-20.014c2.131 0 3.863-1.721 3.863-3.863v-21.825c0-2.131-1.731-3.863-3.863-3.863h20.014c2.132 0 3.863 1.731 3.863 3.863z" fill="#8d9ca8"/></g><g><g><path d="m192.469 187.43h-95.033c-9.393 0-18.138 4.785-23.203 12.695l-37.938 79.673c-5.31 11.152-8.066 23.348-8.066 35.699v111.919h455.72v-67.898c0-13.481-8.443-25.518-21.119-30.107l-81.276-29.427c-6.681-2.419-12.358-7.008-16.123-13.033l-54.106-86.57c-5.035-8.056-13.865-12.95-23.365-12.95h-95.491z" fill="#86e8d0"/></g><g><path d="m483.947 359.516v67.897h-20.014v-57.88c0-13.479-8.436-25.518-21.114-30.111l-81.276-29.42c-6.685-2.422-12.359-7.015-16.121-13.039l-61.912-96.456c-5.033-8.055-13.87-12.949-23.366-12.949l-2.962-.13h30.781c9.496 0 18.333 4.893 23.366 12.949l54.107 86.569c3.763 6.024 9.436 10.617 16.121 13.039l81.276 29.42c12.678 4.594 21.114 16.632 21.114 30.111z" fill="#5de1c4"/></g><g><path d="m495.541 427.415h-478.902c-3.246 0-5.878-2.632-5.878-5.878v-25.438c0-3.246 2.632-5.878 5.878-5.878h478.902c3.246 0 5.878 2.632 5.878 5.878v25.438c0 3.246-2.631 5.878-5.878 5.878z" fill="#9facba"/></g><g><path d="m501.419 396.101v25.438c0 3.242-2.632 5.874-5.874 5.874h-20.014c3.242 0 5.874-2.632 5.874-5.874v-25.438c0-3.252-2.632-5.884-5.874-5.884h20.014c3.242 0 5.874 2.632 5.874 5.884z" fill="#8d9ca8"/></g><g><circle cx="385.799" cy="416.841" fill="#7a8c98" r="58.28"/></g><g><circle cx="126.381" cy="416.841" fill="#7a8c98" r="58.28"/></g><g><path d="m444.079 416.846c0 32.182-26.098 58.28-58.28 58.28-11.528 0-22.275-3.342-31.312-9.116 3.652.71 7.435 1.091 11.298 1.091 32.182 0 58.28-26.098 58.28-58.28 0-20.664-10.757-38.817-26.969-49.164 26.78 5.263 46.983 28.859 46.983 57.189z" fill="#596c76"/></g><g><path d="m184.661 416.846c0 32.182-26.098 58.28-58.28 58.28-11.528 0-22.275-3.342-31.312-9.116 3.652.71 7.435 1.091 11.298 1.091 32.182 0 58.28-26.098 58.28-58.28 0-20.664-10.757-38.817-26.968-49.164 26.778 5.263 46.982 28.859 46.982 57.189z" fill="#596c76"/></g><g><circle cx="126.381" cy="416.841" fill="#f5f8f9" r="30.674"/></g><g><circle cx="385.799" cy="416.841" fill="#f5f8f9" r="30.674"/></g><g><path d="m157.052 416.846c0 16.932-13.729 30.671-30.671 30.671-9.567 0-18.123-4.383-23.736-11.258 1.221.15 2.462.23 3.723.23 16.942 0 30.671-13.729 30.671-30.671 0-7.375-2.602-14.14-6.935-19.423 15.18 1.831 26.948 14.77 26.948 30.451z" fill="#e8edf2"/></g><g><path d="m416.47 416.846c0 16.932-13.729 30.671-30.671 30.671-9.567 0-18.123-4.383-23.736-11.258 1.221.15 2.462.23 3.723.23 16.942 0 30.671-13.729 30.671-30.671 0-7.375-2.602-14.14-6.935-19.423 15.18 1.831 26.948 14.77 26.948 30.451z" fill="#e8edf2"/></g><g><path d="m329.713 291.073-40.969-65.55c-4.127-6.603-11.364-10.614-19.15-10.614h-153.537c-7.698 0-14.866 3.922-19.018 10.405l-31.741 66.609c-2.692 5.65 1.427 12.176 7.685 12.176h249.51c6.688-.001 10.764-7.356 7.22-13.026z" fill="#dff6fd"/></g><g><path d="m177.727 214.907h20.944v89.191h-20.944z" fill="#c8effe"/></g><g><path d="m322.496 304.098h-23.516c6.685 0 10.757-7.355 7.215-13.029l-40.968-65.545c-4.123-6.605-11.358-10.617-19.143-10.617h23.516c7.785 0 15.02 4.013 19.143 10.617l40.968 65.545c3.542 5.674-.53 13.029-7.215 13.029z" fill="#c8effe"/></g><g><path d="m483.95 359.52v.865l-32.348-4.286c-12.499-1.656-21.838-12.314-21.838-24.923v-13.736l33.064 11.97c12.679 4.586 21.122 16.624 21.122 30.11z" fill="#fee45a"/></g><g><path d="m483.947 359.516v.871l-22.395-2.972c-3.352-8.206-10.047-14.85-18.733-17.992l-12.799-4.633c-.17-1.181-.26-2.392-.26-3.612v-13.739l33.073 11.968c12.678 4.592 21.114 16.63 21.114 30.109z" fill="#fac600"/></g></g><g><g><g><g><path d="m115.785 69.229c-3.378 0-6.758-1.273-9.359-3.827-5.264-5.169-5.341-13.626-.171-18.89 24.702-25.156 57.193-39.009 91.488-39.009 34.29 0 66.779 13.851 91.482 39.001 5.169 5.263 5.094 13.721-.17 18.89-5.263 5.171-13.721 5.094-18.89-.17-19.639-19.994-45.359-31.005-72.422-31.005-27.067 0-52.788 11.014-72.426 31.011-2.616 2.663-6.073 3.999-9.532 3.999z" fill="#fee45a"/></g></g><g><g><path d="m148.333 115.471c-3.187 0-6.383-1.132-8.936-3.433-5.482-4.938-5.923-13.384-.985-18.866 15.123-16.788 36.748-26.417 59.33-26.417 22.58 0 44.205 9.627 59.327 26.413 4.938 5.482 4.498 13.928-.984 18.866s-13.929 4.498-18.866-.984c-10.064-11.172-24.454-17.579-39.478-17.579-15.025 0-29.414 6.408-39.478 17.581-2.638 2.929-6.278 4.419-9.93 4.419z" fill="#fee45a"/></g></g><g><g><path d="m216.097 161.711c-4.545.001-8.975-2.319-11.477-6.503-1.396-2.332-3.847-3.726-6.556-3.726-2.602 0-5.001 1.31-6.418 3.503-4.003 6.199-12.271 7.975-18.469 3.974-6.197-4.003-7.976-12.272-3.974-18.469 6.36-9.846 17.148-15.724 28.86-15.724 12.015 0 23.313 6.41 29.484 16.729 3.787 6.331 1.724 14.534-4.608 18.321-2.146 1.284-4.51 1.895-6.842 1.895z" fill="#fee45a"/></g></g></g><g><g><g><path d="m289.054 65.397c-5.262 5.171-13.721 5.088-18.891-.174-2.333-2.379-4.757-4.629-7.255-6.741 4.84 2.094 10.672 1.194 14.667-2.728 5.262-5.17 5.336-13.629.165-18.891-1.304-1.323-2.627-2.627-3.977-3.885 5.428 4.059 10.598 8.578 15.466 13.528 5.17 5.262 5.087 13.721-.175 18.891z" fill="#fac600"/></g></g><g><g><path d="m256.083 112.033c-5.483 4.941-13.932 4.5-18.864-.983-2.076-2.296-4.326-4.399-6.732-6.263 4.62 1.938 10.148 1.175 14.116-2.397 5.483-4.941 5.915-13.381.983-18.864-.799-.891-1.616-1.754-2.461-2.599 5.07 3.49 9.753 7.595 13.941 12.242 4.941 5.483 4.5 13.923-.983 18.864z" fill="#fac600"/></g></g><g><g><path d="m222.939 159.817c-2.149 1.286-4.509 1.892-6.842 1.892-4.546 0-8.973-2.314-11.48-6.502-.257-.422-.551-.826-.873-1.185.12.009.239.009.358.009 2.333 0 4.693-.615 6.842-1.901 6.328-3.784 8.394-11.985 4.601-18.322-1.506-2.516-3.325-4.812-5.382-6.824 7.163 2.718 13.363 7.779 17.385 14.511 3.785 6.328 1.728 14.529-4.609 18.322z" fill="#fac600"/></g></g></g><g><g><g><path d="m230.488 104.787c-1.708-.716-3.297-1.8-4.638-3.251 1.598.992 3.15 2.076 4.638 3.251z" fill="#fac600"/></g></g></g><g><path d="m385.799 455.018c21.051 0 38.177-17.126 38.177-38.177s-17.126-38.177-38.177-38.177-38.177 17.126-38.177 38.177 17.126 38.177 38.177 38.177zm0-61.35c12.777 0 23.173 10.395 23.173 23.173s-10.396 23.173-23.173 23.173-23.173-10.395-23.173-23.173 10.396-23.173 23.173-23.173z"/><path d="m126.381 455.018c21.051 0 38.177-17.126 38.177-38.177s-17.126-38.177-38.177-38.177-38.177 17.126-38.177 38.177 17.126 38.177 38.177 38.177zm0-61.35c12.777 0 23.173 10.395 23.173 23.173s-10.396 23.173-23.173 23.173-23.173-10.395-23.173-23.173 10.396-23.173 23.173-23.173z"/><path d="m269.595 207.407h-153.537c-10.307 0-19.778 5.182-25.336 13.861-.168.263-.319.536-.454.818l-31.741 66.609c-2.379 4.991-2.037 10.763.915 15.438 2.951 4.676 8.014 7.467 13.543 7.467h249.51c5.819 0 11.187-3.162 14.008-8.252s2.658-11.317-.426-16.251l-40.97-65.55c-5.534-8.855-15.071-14.14-25.512-14.14zm-78.422 89.189h-118.189c-.138 0-.558 0-.856-.471-.297-.472-.117-.851-.058-.975l31.52-66.143c2.813-4.138 7.442-6.596 12.467-6.596h75.115v74.185zm132.206-.522c-.289.522-.722.522-.885.522h-116.317v-74.185h63.418c5.234 0 10.015 2.65 12.788 7.088l40.969 65.55c.086.138.315.505.027 1.025z"/><path d="m500.726 467.624h-73.18c10.157-8.371 17.772-19.723 21.489-32.706h46.506c7.378 0 13.381-6.002 13.381-13.38v-25.438c0-7.378-6.003-13.38-13.381-13.38h-4.089v-23.202c0-16.583-10.476-31.516-26.066-37.161l-46.358-16.785c-3.899-1.411-8.199.604-9.608 4.5-1.41 3.896.604 8.197 4.499 9.608l8.342 3.021v8.476c0 16.306 12.19 30.218 28.355 32.36l25.832 3.423v15.761h-34.428c-11.555-18.968-32.434-31.66-56.221-31.66s-44.666 12.692-56.221 31.66h-146.976c-11.555-18.968-32.434-31.66-56.221-31.66s-44.666 12.692-56.221 31.66h-34.428v-67.222c0-11.164 2.537-22.394 7.337-32.474l37.719-79.216c3.733-5.566 9.924-8.875 16.647-8.875h190.525c6.959 0 13.315 3.523 17.003 9.424l54.106 86.57c4.633 7.413 11.712 13.135 19.93 16.11l2.705.98c3.9 1.413 8.199-.604 9.609-4.499 1.411-3.896-.603-8.198-4.498-9.609l-2.707-.98c-5.079-1.839-9.453-5.374-12.315-9.954l-54.106-86.57c-6.448-10.317-17.561-16.476-29.727-16.476h-190.524c-12.008 0-23.045 6.038-29.521 16.151-.168.264-.32.538-.455.821l-37.938 79.673c-5.754 12.083-8.794 25.542-8.794 38.925v67.222h-4.089c-7.378 0-13.381 6.002-13.381 13.38v25.438c0 7.378 6.003 13.38 13.381 13.38h46.506c3.717 12.984 11.333 24.335 21.489 32.706h-73.18c-6.265 0-11.364 5.098-11.364 11.364v21.829c0 6.266 5.098 11.364 11.364 11.364h489.272c6.266 0 11.365-5.098 11.365-11.364v-21.829c-.001-6.269-5.099-11.366-11.365-11.366zm-48.139-118.963c-8.735-1.157-15.322-8.675-15.322-17.486v-3.041l23.01 8.331c.035.013.069.028.105.041 2.887 1.063 5.585 2.619 7.879 4.677 3.08 2.764 5.534 6.552 6.869 10.465zm41.33 49.062v22.19h-42.414c.047-1.019.078-2.042.078-3.072 0-6.648-1-13.064-2.842-19.118zm-433.318 19.118c0 1.03.031 2.053.078 3.072h-42.415v-22.19h45.178c-1.841 6.053-2.841 12.47-2.841 19.118zm325.2-50.778c27.999 0 50.778 22.779 50.778 50.778s-22.779 50.778-50.778 50.778-50.778-22.779-50.778-50.778 22.779-50.778 50.778-50.778zm-62.94 31.66c-1.842 6.053-2.842 12.47-2.842 19.118 0 1.03.031 2.053.078 3.072h-128.01c.047-1.019.078-2.042.078-3.072 0-6.648-1-13.064-2.842-19.118zm-133.242 37.194h132.945c3.717 12.984 11.333 24.335 21.489 32.706h-175.923c10.157-8.371 17.772-19.722 21.489-32.706zm-114.014-18.076c0-27.999 22.779-50.778 50.778-50.778s50.778 22.779 50.778 50.778-22.779 50.778-50.778 50.778-50.778-22.779-50.778-50.778zm421.483 80.336h-481.992v-14.549h481.992z"/><path d="m115.785 76.73c5.643 0 10.929-2.217 14.883-6.244 4.01-4.082 8.35-7.815 12.899-11.094 3.361-2.422 4.122-7.111 1.701-10.472-2.423-3.362-7.112-4.122-10.473-1.7-5.238 3.774-10.228 8.064-14.832 12.753-1.11 1.13-2.594 1.753-4.178 1.753-1.544 0-3.001-.595-4.103-1.678-2.356-2.312-2.357-5.956-.074-8.281 23.278-23.707 53.869-36.763 86.135-36.763 32.26 0 62.849 13.053 86.13 36.756 2.262 2.304 2.23 6.019-.074 8.281-2.272 2.233-6.045 2.203-8.282-.074-21.061-21.442-48.682-33.25-77.774-33.25-10.11 0-20.146 1.434-29.828 4.262-3.978 1.161-6.26 5.328-5.098 9.305 1.161 3.976 5.327 6.26 9.304 5.098 8.315-2.429 16.935-3.66 25.621-3.66 25.033 0 48.853 10.214 67.07 28.76 3.904 3.975 9.123 6.192 14.695 6.242 5.56.052 10.83-2.072 14.806-5.978 8.206-8.06 8.324-21.293.264-29.5-26.126-26.598-60.515-41.246-96.834-41.246-36.326 0-70.717 14.651-96.841 41.254-3.903 3.976-6.026 9.233-5.976 14.805.051 5.572 2.268 10.791 6.243 14.693 3.924 3.856 9.115 5.978 14.616 5.978z"/><path d="m261.105 117.609c4.141-3.729 6.58-8.848 6.87-14.413.29-5.564-1.604-10.908-5.334-15.049-16.542-18.363-40.198-28.894-64.901-28.894-24.704 0-48.361 10.533-64.903 28.897-7.698 8.546-7.009 21.762 1.536 29.461 3.838 3.457 8.795 5.361 13.958 5.361 5.903 0 11.554-2.514 15.505-6.899 8.642-9.596 21-15.099 33.903-15.099s25.26 5.503 33.903 15.097c3.729 4.14 8.848 6.581 14.412 6.871 5.569.289 10.912-1.604 15.051-5.333zm-63.364-31.639c-17.148 0-33.569 7.312-45.051 20.061-1.126 1.25-2.674 1.938-4.358 1.938-1.448 0-2.838-.534-3.914-1.504-2.4-2.162-2.594-5.872-.433-8.271 13.702-15.211 33.296-23.936 53.755-23.936s40.051 8.723 53.754 23.933c1.047 1.162 1.578 2.663 1.497 4.225s-.766 2.999-1.928 4.045c-1.163 1.047-2.662 1.575-4.226 1.498-1.562-.082-2.998-.766-4.045-1.929-11.483-12.748-27.904-20.06-45.051-20.06z"/><path d="m198.064 117.263c-14.269 0-27.414 7.161-35.163 19.156-6.24 9.662-3.456 22.601 6.207 28.842 9.664 6.239 22.602 3.455 28.838-6.205.044-.067.078-.072.118-.072.062 0 .072 0 .116.074 3.746 6.264 10.609 10.155 17.913 10.155h.003c3.759 0 7.457-1.023 10.694-2.959 9.871-5.904 13.099-18.738 7.195-28.61-7.517-12.572-21.282-20.381-35.921-20.381zm21.026 36.114c-.91.544-1.945.832-2.993.832-.001 0-.001 0-.002 0 0 0 0 0-.001 0-2.086 0-3.968-1.066-5.037-2.853-2.763-4.618-7.62-7.376-12.993-7.376-5.16 0-9.915 2.592-12.721 6.935-1.751 2.712-5.383 3.493-8.095 1.742-2.713-1.752-3.494-5.385-1.743-8.097 4.972-7.698 13.406-12.293 22.559-12.293 9.39 0 18.221 5.011 23.046 13.077 1.656 2.772.751 6.375-2.02 8.033z"/></g></g></g></svg>