<svg id="Capa_1" enable-background="new 0 0 512 512" height="512" viewBox="0 0 512 512" width="512" xmlns="http://www.w3.org/2000/svg"><g><path d="m473.436 380.249h-434.872v-284.109c0-14.643 11.87-26.513 26.513-26.513h381.845c14.643 0 26.513 11.87 26.513 26.513v284.109z" fill="#e9f1ff"/><path d="m69.626 100.689h18.938v-4.549c0-14.643 11.87-26.513 26.513-26.513h-50c-14.643 0-26.513 11.87-26.513 26.513v284.109h50v-31.062h-18.938z" fill="#d7e4f7"/><path d="m477.985 442.374h-443.97c-14.643 0-26.513-11.87-26.513-26.513v-35.611h496.996v35.611c0 14.642-11.87 26.513-26.513 26.513z" fill="#d7e4f7"/><path d="m57.502 415.86v-35.611h-50v35.611c0 14.643 11.87 26.513 26.513 26.513h50c-14.643.001-26.513-11.87-26.513-26.513z" fill="#bed2ee"/><path d="m69.626 100.689h372.747v248.498h-372.747z" fill="#62dbfb"/><path d="m69.626 100.689h18.938v248.498h-18.938z" fill="#68b3f3"/><path d="m349.187 380.249h-186.374l15.531 31.062h155.312z" fill="#0055a3"/><circle cx="256" cy="224.938" fill="#0ed290" r="93.187"/><path d="m212.813 224.938c0-42.805 28.863-78.864 68.187-89.79-7.956-2.21-16.339-3.397-25-3.397-51.466 0-93.187 41.721-93.187 93.187s41.721 93.187 93.187 93.187c8.661 0 17.044-1.186 25-3.397-39.324-10.926-68.187-46.985-68.187-89.79z" fill="#08b865"/><g><path d="m504.5 372.75h-23.56v-131.47c0-4.143-3.358-7.5-7.5-7.5s-7.5 3.357-7.5 7.5v131.47h-419.88v-276.61c0-10.482 8.532-19.01 19.02-19.01h381.84c10.488 0 19.02 8.527 19.02 19.01v112.46c0 4.143 3.358 7.5 7.5 7.5s7.5-3.357 7.5-7.5v-112.46c0-18.753-15.261-34.01-34.02-34.01h-381.84c-18.759 0-34.02 15.257-34.02 34.01v276.61h-23.56c-4.142 0-7.5 3.357-7.5 7.5v35.61c0 18.753 15.261 34.01 34.02 34.01h205.64c4.142 0 7.5-3.357 7.5-7.5s-3.358-7.5-7.5-7.5h-205.64c-10.488 0-19.02-8.527-19.02-19.01v-28.11h143.179l13.457 26.915c1.27 2.541 3.867 4.146 6.708 4.146h155.312c2.841 0 5.438-1.605 6.708-4.146l13.457-26.915h143.179v28.11c0 10.482-8.532 19.01-19.02 19.01h-205.64c-4.142 0-7.5 3.357-7.5 7.5s3.358 7.5 7.5 7.5h205.64c18.759 0 34.02-15.257 34.02-34.01v-35.61c0-4.143-3.358-7.5-7.5-7.5zm-175.479 31.062h-146.042l-8.03-16.062h162.102z"/><path d="m143.62 108.19c4.142 0 7.5-3.357 7.5-7.5s-3.358-7.5-7.5-7.5h-73.99c-4.142 0-7.5 3.357-7.5 7.5v248.5c0 4.143 3.358 7.5 7.5 7.5h372.74c4.142 0 7.5-3.357 7.5-7.5v-248.5c0-4.143-3.358-7.5-7.5-7.5h-266.06c-4.142 0-7.5 3.357-7.5 7.5s3.358 7.5 7.5 7.5h258.56v233.5h-357.74v-233.5z"/><path d="m356.687 224.938c0-55.519-45.168-100.687-100.687-100.687s-100.687 45.168-100.687 100.687 45.168 100.686 100.687 100.686 100.687-45.168 100.687-100.686zm-186.374 0c0-47.248 38.439-85.687 85.687-85.687s85.687 38.438 85.687 85.687-38.439 85.686-85.687 85.686-85.687-38.438-85.687-85.686z"/><path d="m291.634 199.84c-3.285-2.525-7.992-1.911-10.517 1.374l-32.438 42.184-18.438-18.438c-2.929-2.928-7.678-2.928-10.606 0-2.929 2.93-2.929 7.678 0 10.607l24.479 24.479c3.172 3.17 8.466 2.889 11.249-.732l37.646-48.956c2.523-3.285 1.908-7.994-1.375-10.518z"/></g></g></svg>