<svg id="Capa_1" enable-background="new 0 0 511.996 511.996" height="512" viewBox="0 0 511.996 511.996" width="512" xmlns="http://www.w3.org/2000/svg"><g><g><path d="m283.15 278.123h-252.048l7.356 53.255 236.692-32.694c2.743-7.885 5.524-14.83 8-20.561z" fill="#b0efa5"/><path d="m275.149 298.683-37.794 5.22 24.217 54.003c2.277-22.179 7.845-42.751 13.577-59.223z" fill="#d6995c"/><path d="m7.5 7.5h496.996v270.623h-496.996z" fill="#b0efa5"/><path d="m442.372 247.06h-372.747c0-17.604-13.458-31.062-31.062-31.062v-146.373c17.604 0 31.062-13.458 31.062-31.062h372.747c0 17.604 13.458 31.062 31.062 31.062v146.374c-17.604-.001-31.062 13.457-31.062 31.061z" fill="#f9f8f9"/><g><circle cx="255.998" cy="142.811" fill="#b0efa5" r="73.073"/></g><g fill="#8be1a4"><path d="m202.925 142.811c0-36.965 27.447-67.519 63.073-72.394-3.269-.447-6.608-.679-10-.679-40.357 0-73.073 32.716-73.073 73.073s32.716 73.073 73.073 73.073c3.392 0 6.731-.232 10-.679-35.626-4.875-63.073-35.429-63.073-72.394z"/><circle cx="401.309" cy="142.811" r="15.531"/><circle cx="110.687" cy="142.811" r="15.531"/></g><path d="m449.494 226.905c0-.001.001-.002.002-.002h-360.014c-2.617 0-5.014-1.462-6.213-3.789-4.629-8.981-11.479-16.582-19.509-18.948-3.043-.896-5.198-3.592-5.198-6.763v-109.978c0-3.167 2.141-5.888 5.187-6.756 12.372-3.527 21.944-19.125 24.913-33.365.629-3.017 3.494-8.741 10.251-8.741h-29.29c0 17.604-13.458 31.062-31.062 31.062v146.374c17.604 0 31.062 13.458 31.062 31.062h372.747c0-.099.001-.198.002-.296.067-7.685 2.701-14.565 7.122-19.86z" fill="#e8e8e8"/><g><path d="m364.342 314.095-16.404-63.65-.71-3.174v-53.397c0-15.03-12.184-27.214-27.214-27.214-15.03 0-27.214 12.184-27.214 27.214 0 64.478.494 62.204-1.198 66.582 0 0-30.706 55.121-31.099 116.739-.276 43.138 20.766 62.032 20.891 84.337h124.733l-1.88-27.461c-.313-3.862-.223-7.745.268-11.588 0 0 37.858-88.828 37.486-144.359h-86.93z" fill="#e2a76e"/></g><g><path d="m298.694 441.531c-9.081 0-16.432-6.096-19.954-14.467-7.169-17.04-15.894-32.307-17.913-59.907-.193 3.321-.305 6.669-.326 10.037-.275 43.138 20.766 62.032 20.891 84.337h124.733l-1.369-20z" fill="#d6995c"/></g><path d="m438.584 504.496h-186.374v-35.831c0-3.94 3.194-7.133 7.133-7.133h172.107c3.94 0 7.133 3.194 7.133 7.133v35.831z" fill="#d3effd"/><path d="m272.21 488.665c0-3.94 3.194-7.133 7.133-7.133h159.24v-12.867c0-3.94-3.194-7.133-7.134-7.133h-172.105c-3.94 0-7.133 3.194-7.133 7.133v35.831h20v-15.831z" fill="#a0dbf2"/><path d="m364.251 313.647-9.18-35.524 33.958.001z" fill="#d6995c"/><path d="m347.228 247.065v.206l.71 3.174 7.133 27.678 20-.001-7.133-27.677-.71-3.174v-.206z" fill="#8be1a4"/><path d="m283.15 278.123h-252.048l2.763 20h241.481c2.679-7.653 5.387-14.405 7.804-20z" fill="#8be1a4"/></g><g><path d="m504.496 0h-496.996c-4.142 0-7.5 3.358-7.5 7.5v270.623c0 4.142 3.358 7.5 7.5 7.5h17.067l6.462 46.781c.513 3.716 3.691 6.474 7.429 6.474.981 0-7.684 1.108 194.356-26.775l21.095 47.041c-.548 5.902-.868 11.917-.907 18.003-.171 26.783 7.432 44.826 13.541 59.324 2.766 6.566 5.139 12.198 6.395 17.561h-13.593c-8.069 0-14.633 6.564-14.633 14.634v35.831c0 4.142 3.358 7.5 7.5 7.5h111.694c4.143 0 7.5-3.358 7.5-7.5s-3.357-7.5-7.5-7.5h-104.195v-27.965h171.373v27.965h-34.494c-4.143 0-7.5 3.358-7.5 7.5s3.357 7.5 7.5 7.5h41.994c4.143 0 7.5-3.358 7.5-7.5v-35.831c0-8.069-6.564-14.634-14.634-14.634h-18.32l-1.408-20.568c-.244-3.006-.205-6.044.116-9.045 4.213-10.046 35.013-85.128 37.505-138.795h55.154c4.143 0 7.5-3.358 7.5-7.5v-270.624c-.001-4.142-3.358-7.5-7.501-7.5zm-149.768 239.56v-45.687c0-14.082-8.429-26.232-20.506-31.672 1.561-6.314 2.35-12.808 2.35-19.39 0-44.429-36.145-80.574-80.573-80.574-36.181 0-68.134 24.341-77.704 59.194-1.097 3.994 1.252 8.122 5.247 9.218 3.996 1.099 8.121-1.252 9.218-5.247 7.787-28.359 33.792-48.166 63.239-48.166 36.157 0 65.573 29.417 65.573 65.574 0 5.559-.69 11.038-2.054 16.351-18.914.266-34.219 15.734-34.219 34.711v7.616c-9.049 4.521-19.095 6.895-29.301 6.895-31.656 0-58.779-22.557-64.491-53.636-.749-4.074-4.662-6.766-8.732-6.021-4.074.749-6.769 4.658-6.021 8.732 7.021 38.199 40.348 65.924 79.244 65.924 10.067 0 20.011-1.882 29.301-5.503v21.678h-208.873c-2.94-15.494-14.869-27.423-30.363-30.363v-132.768c15.494-2.94 27.423-14.869 30.363-30.363h359.144c2.939 15.494 14.869 27.423 30.363 30.363v132.771c-15.494 2.94-27.424 14.869-30.363 30.363zm-106.435 70.404 15.959-2.204c-2.267 7.466-4.394 15.525-6.175 24.022zm148.781 111.567c-.557 4.352-.658 8.775-.311 13.051l1.331 19.449h-109.87c-1.345-7.924-4.531-15.487-7.859-23.385-5.866-13.922-12.515-29.702-12.363-53.404.381-59.729 30.188-113.025 30.595-114.083 1.13-2.923 1.703-5.994 1.703-9.127 0-24.254 0-42.967 0-60.159 0-10.871 8.844-19.714 19.715-19.714 10.827 0 19.714 8.801 19.714 19.714.082 74.019-1.587 44.528 8.036 85.95.855 3.566-3.232-12.53 9.315 36.143 1.034 4.011 5.12 6.426 9.135 5.391 4.011-1.034 6.425-5.124 5.391-9.134l-6.855-26.601h69.577c-2.828 55.321-36.898 133.137-37.254 135.909zm99.922-150.908h-136.113l-4.14-16.063h85.628c4.143 0 7.5-3.358 7.5-7.5 0-13.433 10.13-23.562 23.563-23.562 4.143 0 7.5-3.358 7.5-7.5v-146.373c0-4.142-3.357-7.5-7.5-7.5-13.433 0-23.563-10.129-23.563-23.562 0-4.142-3.357-7.5-7.5-7.5h-372.746c-4.142 0-7.5 3.358-7.5 7.5 0 13.433-10.129 23.562-23.562 23.562-4.142 0-7.5 3.358-7.5 7.5v146.374c0 4.142 3.358 7.5 7.5 7.5 13.433 0 23.562 10.129 23.562 23.562 0 4.142 3.358 7.5 7.5 7.5h215.66c-.175 3.444-.755 2.181-7.055 16.063h-151.2c-4.142 0-7.5 3.358-7.5 7.5s3.358 7.5 7.5 7.5h144.888c-.78 2.003-1.57 4.093-2.361 6.262l-224.696 31.036-5.152-37.299h54.635c4.142 0 7.5-3.358 7.5-7.5s-3.358-7.5-7.5-7.5h-79.344v-255.623h481.996z"/><path d="m251.64 150.312h8.716c4.613 0 8.367 3.753 8.367 8.367s-3.754 8.367-8.367 8.367h-9.831c-3.042 0-5.673-1.958-6.548-4.872-1.19-3.967-5.372-6.218-9.339-5.028s-6.219 5.372-5.028 9.339c2.596 8.654 10.044 14.667 18.887 15.469v9.324c0 4.142 3.358 7.5 7.5 7.5 4.143 0 7.5-3.358 7.5-7.5v-9.443c11.405-1.539 20.226-11.337 20.226-23.156 0-12.885-10.482-23.367-23.367-23.367h-8.716c-4.614 0-8.367-3.754-8.367-8.368s3.753-8.367 8.367-8.367h7.787c3.042 0 5.674 1.958 6.548 4.872 1.19 3.967 5.373 6.22 9.339 5.028 3.968-1.19 6.219-5.372 5.028-9.339-2.393-7.978-8.911-13.712-16.844-15.187v-9.606c0-4.142-3.357-7.5-7.5-7.5-4.142 0-7.5 3.358-7.5 7.5v9.443c-11.404 1.539-20.225 11.337-20.225 23.156 0 12.885 10.482 23.368 23.367 23.368z"/><path d="m401.31 119.78c-12.699 0-23.031 10.332-23.031 23.031s10.332 23.031 23.031 23.031 23.031-10.332 23.031-23.031-10.332-23.031-23.031-23.031zm0 31.062c-4.429 0-8.031-3.603-8.031-8.031s3.603-8.031 8.031-8.031 8.031 3.603 8.031 8.031-3.603 8.031-8.031 8.031z"/><path d="m110.687 119.78c-12.699 0-23.031 10.332-23.031 23.031s10.332 23.031 23.031 23.031c12.7 0 23.031-10.332 23.031-23.031s-10.332-23.031-23.031-23.031zm0 31.062c-4.428 0-8.031-3.603-8.031-8.031s3.603-8.031 8.031-8.031 8.031 3.603 8.031 8.031-3.603 8.031-8.031 8.031z"/><path d="m282.938 475.516c-4.243.019-7.5 3.456-7.5 7.502 0 4.071 3.336 7.5 7.5 7.5 4.099 0 7.5-3.342 7.5-7.5 0-4.252-3.486-7.52-7.5-7.502z"/></g></g></svg>