<svg id="Capa_1" enable-background="new 0 0 512.001 512.001" height="512" viewBox="0 0 512.001 512.001" width="512" xmlns="http://www.w3.org/2000/svg"><g><g><path d="m94.735 504.5h-33.47c-5.884 0-10.654-4.77-10.654-10.654v-475.691c0-5.884 4.77-10.655 10.654-10.655h33.47c5.884 0 10.655 4.77 10.655 10.655v475.691c0 5.884-4.771 10.654-10.655 10.654z" fill="#d2d2d7"/></g><g><path d="m50.611 126.059h54.779v258.725h-54.779z" fill="#b9b9be"/></g><g><path d="m440.141 54.997h-422.335c-5.692 0-10.305 4.614-10.305 10.305v107.095c0 5.692 4.614 10.306 10.306 10.306h422.335c2.904 0 5.691-1.146 7.754-3.19l53.341-52.835c4.353-4.311 4.353-11.345 0-15.657l-53.341-52.835c-2.065-2.042-4.851-3.189-7.755-3.189z" fill="#cea0f4"/></g><g><path d="m265.01 231.357h-247.204c-5.692 0-10.305 4.614-10.305 10.305v107.096c0 5.692 4.614 10.306 10.306 10.306h247.203c2.904 0 5.691-1.146 7.754-3.19l53.341-52.835c4.353-4.311 4.353-11.345 0-15.657l-53.341-52.835c-2.063-2.044-4.85-3.19-7.754-3.19z" fill="#ffd549"/></g><g><path d="m501.236 111.022-53.341-52.835c-2.063-2.043-4.85-3.19-7.754-3.19h-30c2.904 0 5.691 1.146 7.754 3.19l53.341 52.835c4.353 4.312 4.353 11.345 0 15.657l-53.341 52.835c-2.063 2.043-4.85 3.19-7.754 3.19h30c2.904 0 5.691-1.146 7.754-3.19l53.341-52.835c4.352-4.312 4.352-11.345 0-15.657z" fill="#c08af0"/></g><g><path d="m326.105 287.382-53.341-52.835c-2.063-2.044-4.85-3.19-7.754-3.19h-30c2.904 0 5.691 1.146 7.754 3.19l53.341 52.835c4.353 4.311 4.353 11.345 0 15.656l-53.341 52.835c-2.063 2.043-4.85 3.19-7.754 3.19h30c2.904 0 5.691-1.146 7.754-3.19l53.341-52.835c4.353-4.311 4.353-11.345 0-15.656z" fill="#ffc400"/></g><g><path d="m506.514 105.693-53.341-52.834c-3.491-3.457-8.119-5.362-13.032-5.362h-327.251v-29.342c0-10.01-8.144-18.154-18.154-18.154h-33.47c-10.011 0-18.154 8.144-18.154 18.154v29.342h-25.306c-9.819 0-17.806 7.988-17.806 17.806v107.095c0 9.818 7.987 17.806 17.806 17.806h25.306v33.653h-25.306c-9.819 0-17.806 7.987-17.806 17.805v107.096c0 9.818 7.987 17.805 17.806 17.805h25.306v127.283c0 10.01 8.144 18.154 18.154 18.154h33.47c10.011 0 18.154-8.144 18.154-18.154v-127.283h82.777c4.143 0 7.5-3.358 7.5-7.5s-3.357-7.5-7.5-7.5h-177.861c-1.547 0-2.806-1.258-2.806-2.805v-107.096c0-1.547 1.259-2.805 2.806-2.805h247.204c.934 0 1.812.361 2.476 1.019l53.342 52.835c.907.898 1.043 1.952 1.043 2.499 0 .548-.136 1.601-1.043 2.5l-53.342 52.836c-.663.656-1.542 1.018-2.476 1.018h-39.343c-4.143 0-7.5 3.358-7.5 7.5s3.357 7.5 7.5 7.5h39.343c4.914 0 9.543-1.904 13.032-5.361l53.342-52.835c3.537-3.504 5.486-8.177 5.486-13.157s-1.949-9.652-5.486-13.157l-53.342-52.834c-3.489-3.458-8.118-5.362-13.032-5.362h-152.12v-33.653h136.663c4.143 0 7.5-3.358 7.5-7.5s-3.357-7.5-7.5-7.5h-231.747c-1.547 0-2.806-1.259-2.806-2.806v-107.096c0-1.547 1.259-2.806 2.806-2.806h422.335c.934 0 1.812.362 2.476 1.019l53.342 52.835c.907.898 1.043 1.952 1.043 2.5 0 .547-.136 1.601-1.044 2.499l-53.34 52.835c-.664.657-1.543 1.019-2.477 1.019h-160.588c-4.143 0-7.5 3.358-7.5 7.5s3.357 7.5 7.5 7.5h160.588c4.912 0 9.54-1.904 13.032-5.361l53.34-52.835c3.539-3.505 5.488-8.177 5.488-13.157 0-4.981-1.949-9.653-5.487-13.158zm-408.624 388.153c0 1.739-1.415 3.154-3.154 3.154h-33.47c-1.739 0-3.154-1.415-3.154-3.154v-127.283h39.778zm0-269.989h-39.779v-33.653h39.779zm-39.779-205.702c0-1.739 1.415-3.154 3.154-3.154h33.47c1.739 0 3.154 1.415 3.154 3.154v29.342h-39.778z"/><path d="m137.015 264.736c-1.361-3.308-4.551-5.444-8.127-5.444-.002 0-.006 0-.008 0-3.58.003-6.77 2.146-8.126 5.46-.022.057-.046.114-.067.172l-21.341 56.034c-1.475 3.871.469 8.204 4.34 9.678 3.864 1.475 8.203-.468 9.678-4.339l3.475-9.124h23.936l3.436 9.103c1.133 3.003 3.987 4.854 7.017 4.854.88 0 1.775-.156 2.648-.485 3.875-1.463 5.831-5.79 4.368-9.665l-21.147-56.036c-.027-.07-.054-.139-.082-.208zm-14.464 37.436 6.31-16.567 6.253 16.567z"/><path d="m200.323 316.079c-.004 0-4.712.026-9.545.04-.003 0-.005 0-.008 0-1.01 0-1.675-.513-1.982-.819-.308-.307-.824-.973-.824-1.986v-46.521c0-4.142-3.357-7.5-7.5-7.5s-7.5 3.358-7.5 7.5v46.521c0 4.765 1.858 9.243 5.232 12.607 3.363 3.353 7.826 5.198 12.573 5.198h.052c4.854-.014 9.586-.04 9.586-.04 4.142-.023 7.482-3.4 7.458-7.542-.023-4.142-3.369-7.47-7.542-7.458z"/><path d="m238.602 274.552h13.424c4.143 0 7.5-3.358 7.5-7.5s-3.357-7.5-7.5-7.5h-13.424c-9.817 0-17.805 7.987-17.805 17.805v35.705c0 9.818 7.987 17.805 17.805 17.805h13.424c4.143 0 7.5-3.358 7.5-7.5s-3.357-7.5-7.5-7.5h-13.424c-1.547 0-2.805-1.258-2.805-2.805v-10.352h14.48c4.143 0 7.5-3.358 7.5-7.5s-3.357-7.5-7.5-7.5h-14.48v-10.353c.001-1.546 1.259-2.805 2.805-2.805z"/><path d="m65.647 316.127c-5.539 0-10.866-2.229-14.248-5.961-2.781-3.069-7.523-3.303-10.594-.521-3.069 2.781-3.303 7.525-.521 10.594 6.271 6.92 15.515 10.889 25.363 10.889 12.169 0 22.391-7.78 24.305-18.5 1.443-8.082-2.206-18.633-16.775-24.006-6.569-2.423-12.687-5.039-15.015-6.052-.354-.154-.482-.251-.483-.251v.001c-.96-.849-1.356-2.168-1.059-3.526.233-1.065 1.088-2.992 4.188-3.926 7.802-2.348 15.071 3.38 15.277 3.544 3.171 2.627 7.872 2.207 10.525-.95 2.665-3.171 2.256-7.902-.915-10.567-.544-.457-13.482-11.131-29.214-6.39-7.516 2.264-12.941 7.9-14.515 15.078-1.457 6.65.756 13.537 5.777 17.976 1.256 1.11 2.705 2.015 4.432 2.766 2.443 1.063 8.876 3.814 15.809 6.371 1.871.69 7.921 3.256 7.199 7.296-.536 3.015-4.25 6.135-9.536 6.135z"/><path d="m216.892 87.831c-3.883-.221-7.45 2.216-8.654 5.923-.027.086-.054.173-.079.26l-7.249 25.429-7.524-25.503c-.026-.088-.054-.176-.083-.264-1.241-3.697-4.827-6.096-8.716-5.837-3.891.26-7.124 3.116-7.878 7.032l-8.477 46.969c-.735 4.076 1.973 7.977 6.049 8.713 4.075.734 7.978-1.972 8.713-6.049l3.671-20.339 6.126 20.764c.026.088.054.176.083.263 1.177 3.508 4.445 5.857 8.142 5.857h.043c3.715-.018 6.982-2.405 8.128-5.938.027-.085.054-.172.079-.259l5.912-20.739 3.912 20.467c.777 4.07 4.712 6.736 8.774 5.959 4.068-.778 6.736-4.706 5.958-8.774l-8.997-47.073c-.78-3.82-4.042-6.641-7.933-6.861z"/><path d="m277.644 144.027c1.178 3.508 4.446 5.856 8.143 5.856.015 0 .029-.001.044-.001 3.714-.018 6.98-2.405 8.127-5.938.027-.085.054-.172.079-.259l5.911-20.739 3.911 20.467c.778 4.07 4.714 6.733 8.775 5.959 4.068-.777 6.736-4.706 5.959-8.774l-8.997-47.073c-.778-3.819-4.04-6.64-7.932-6.86-3.886-.216-7.452 2.216-8.655 5.924-.027.086-.054.173-.079.26l-7.249 25.43-7.524-25.504c-.026-.089-.054-.177-.083-.265-1.241-3.696-4.811-6.102-8.717-5.836-3.891.26-7.123 3.116-7.877 7.032l-8.477 46.968c-.735 4.076 1.973 7.977 6.049 8.713 4.075.733 7.977-1.972 8.713-6.049l3.67-20.338 6.126 20.764c.026.088.053.176.083.263z"/><path d="m61.924 136.049c-4.386 0-8.591-1.752-11.25-4.686-2.783-3.07-7.526-3.301-10.594-.52-3.069 2.782-3.303 7.524-.521 10.594 5.537 6.109 13.688 9.613 22.365 9.613 10.878 0 20.022-6.996 21.744-16.635 1.305-7.311-1.939-16.834-14.96-21.637-5.666-2.09-10.959-4.36-12.845-5.183-.545-.523-.593-1.181-.521-1.673.173-1.209 1.195-2.18 2.804-2.665 5.998-1.807 11.7 2.626 11.921 2.801 3.17 2.622 7.867 2.199 10.519-.956 2.665-3.171 2.255-7.902-.915-10.567-4.368-3.671-14.731-8.989-25.851-5.641-7.213 2.173-12.319 7.881-13.326 14.896-.949 6.618 1.921 12.985 7.492 16.616.331.216.679.405 1.04.566.281.125 6.966 3.101 14.491 5.877 2.842 1.048 5.748 2.893 5.385 4.928-.308 1.723-2.739 4.272-6.978 4.272z"/><path d="m108.988 87.817c-4.143 0-7.5 3.358-7.5 7.5v33.189c0 7.812 3.711 14.145 11.028 18.82 3.856 2.464 8.203 3.716 12.918 3.723h.039c4.048 0 7.854-.883 11.313-2.625 8.523-4.292 13.216-11.379 13.216-19.953v-33.154c0-4.142-3.357-7.5-7.5-7.5s-7.5 3.358-7.5 7.5v33.153c0 2.006-.59 4.354-4.963 6.556-1.365.688-2.859 1.022-4.566 1.022-.006 0-.012 0-.019 0-1.84-.002-3.431-.448-4.862-1.363-3.433-2.193-4.104-3.927-4.104-6.18v-33.188c0-4.142-3.357-7.5-7.5-7.5z"/><path d="m368.998 101.872c4.142 0 7.5-3.358 7.5-7.5s-3.358-7.5-7.5-7.5h-20.137c-4.142 0-7.5 3.358-7.5 7.5v47.792c0 4.142 3.358 7.5 7.5 7.5h20.137c4.142 0 7.5-3.358 7.5-7.5s-3.358-7.5-7.5-7.5h-12.637v-8.896h11.152c4.143 0 7.5-3.358 7.5-7.5s-3.357-7.5-7.5-7.5h-11.152v-8.896z"/><path d="m440.111 106.687c0-11.047-9.306-20.035-20.744-20.035h-12.817c-.003 0-.005 0-.008 0s-.005 0-.008 0c-4.143 0-7.5 3.358-7.5 7.5v48.231c0 4.142 3.357 7.5 7.5 7.5s7.5-3.358 7.5-7.5v-9.755l12.947 14.71c1.482 1.685 3.553 2.545 5.633 2.545 1.76 0 3.527-.616 4.952-1.87 3.109-2.737 3.411-7.476.675-10.585l-10.81-12.282c7.444-3.045 12.68-10.172 12.68-18.459zm-20.744-5.035c3.06 0 5.744 2.353 5.744 5.035s-2.685 5.035-5.744 5.035c-1.268 0-3.245.007-5.27.016-.009-1.949-.016-3.839-.016-5.051 0-1.043-.004-2.985-.01-5.035z"/></g></g></svg>